<?xml version="1.0" encoding="utf-8" ?>
<svg baseProfile="full" height="9.004999999999999in" version="1.1" viewBox="0,0,3.8279099000000003,9.004999999999999" width="3.8279099000000003in" xmlns="http://www.w3.org/2000/svg" xmlns:ev="http://www.w3.org/2001/xml-events" xmlns:xlink="http://www.w3.org/1999/xlink"><defs /><circle cx="0.3835" cy="3.6325" fill-opacity="0.0" r="0.1325" stroke="red" stroke-width="0.001" /><circle cx="1.4038033" cy="3.765" fill-opacity="0.0" r="0.1325" stroke="red" stroke-width="0.001" /><circle cx="1.7439044000000001" cy="3.8975" fill-opacity="0.0" r="0.1325" stroke="red" stroke-width="0.001" /><circle cx="2.7642077" cy="4.03" fill-opacity="0.0" r="0.1325" stroke="red" stroke-width="0.001" /><circle cx="1.7439044000000001" cy="4.1625" fill-opacity="0.0" r="0.1325" stroke="red" stroke-width="0.001" /><circle cx="1.4038033" cy="4.295" fill-opacity="0.0" r="0.1325" stroke="red" stroke-width="0.001" /><circle cx="0.3835" cy="4.4275" fill-opacity="0.0" r="0.1325" stroke="red" stroke-width="0.001" /><circle cx="1.4038033" cy="4.5600000000000005" fill-opacity="0.0" r="0.1325" stroke="red" stroke-width="0.001" /><circle cx="0.3835" cy="4.6925" fill-opacity="0.0" r="0.1325" stroke="red" stroke-width="0.001" /><circle cx="1.4038033" cy="4.825" fill-opacity="0.0" r="0.1325" stroke="red" stroke-width="0.001" /><circle cx="1.7439044000000001" cy="4.9575000000000005" fill-opacity="0.0" r="0.1325" stroke="red" stroke-width="0.001" /><circle cx="2.7642077" cy="5.09" fill-opacity="0.0" r="0.1325" stroke="red" stroke-width="0.001" /><circle cx="1.7439044000000001" cy="5.2225" fill-opacity="0.0" r="0.1325" stroke="red" stroke-width="0.001" /><circle cx="1.4038033" cy="5.355" fill-opacity="0.0" r="0.1325" stroke="red" stroke-width="0.001" /><circle cx="0.3835" cy="5.4875" fill-opacity="0.0" r="0.1325" stroke="red" stroke-width="0.001" /><circle cx="0.7236011" cy="5.62" fill-opacity="0.0" r="0.1325" stroke="red" stroke-width="0.001" /><circle cx="3.4444099" cy="5.62" fill-opacity="0.0" r="0.1325" stroke="red" stroke-width="0.001" /><circle cx="1.0637022" cy="5.7524999999999995" fill-opacity="0.0" r="0.1325" stroke="red" stroke-width="0.001" /><circle cx="3.1043088" cy="5.7524999999999995" fill-opacity="0.0" r="0.1325" stroke="red" stroke-width="0.001" /><circle cx="2.0840055" cy="5.885" fill-opacity="0.0" r="0.1325" stroke="red" stroke-width="0.001" /><circle cx="3.4444099" cy="5.885" fill-opacity="0.0" r="0.1325" stroke="red" stroke-width="0.001" /><circle cx="2.4241066" cy="6.0175" fill-opacity="0.0" r="0.1325" stroke="red" stroke-width="0.001" /><circle cx="2.0840055" cy="6.15" fill-opacity="0.0" r="0.1325" stroke="red" stroke-width="0.001" /><circle cx="3.4444099" cy="6.15" fill-opacity="0.0" r="0.1325" stroke="red" stroke-width="0.001" /><circle cx="1.0637022" cy="6.282500000000001" fill-opacity="0.0" r="0.1325" stroke="red" stroke-width="0.001" /><circle cx="3.1043088" cy="6.282500000000001" fill-opacity="0.0" r="0.1325" stroke="red" stroke-width="0.001" /><circle cx="0.7236011" cy="6.415" fill-opacity="0.0" r="0.1325" stroke="red" stroke-width="0.001" /><circle cx="3.4444099" cy="6.415" fill-opacity="0.0" r="0.1325" stroke="red" stroke-width="0.001" /><circle cx="1.0637022" cy="6.547499999999999" fill-opacity="0.0" r="0.1325" stroke="red" stroke-width="0.001" /><circle cx="2.4241066" cy="6.547499999999999" fill-opacity="0.0" r="0.1325" stroke="red" stroke-width="0.001" /><circle cx="0.7236011" cy="6.68" fill-opacity="0.0" r="0.1325" stroke="red" stroke-width="0.001" /><circle cx="3.4444099" cy="6.68" fill-opacity="0.0" r="0.1325" stroke="red" stroke-width="0.001" /><circle cx="1.0637022" cy="6.8125" fill-opacity="0.0" r="0.1325" stroke="red" stroke-width="0.001" /><circle cx="3.1043088" cy="6.8125" fill-opacity="0.0" r="0.1325" stroke="red" stroke-width="0.001" /><circle cx="2.0840055" cy="6.945" fill-opacity="0.0" r="0.1325" stroke="red" stroke-width="0.001" /><circle cx="3.4444099" cy="6.945" fill-opacity="0.0" r="0.1325" stroke="red" stroke-width="0.001" /><circle cx="2.4241066" cy="7.077500000000001" fill-opacity="0.0" r="0.1325" stroke="red" stroke-width="0.001" /><circle cx="2.0840055" cy="7.21" fill-opacity="0.0" r="0.1325" stroke="red" stroke-width="0.001" /><circle cx="3.4444099" cy="7.21" fill-opacity="0.0" r="0.1325" stroke="red" stroke-width="0.001" /><circle cx="1.0637022" cy="7.342499999999999" fill-opacity="0.0" r="0.1325" stroke="red" stroke-width="0.001" /><circle cx="3.1043088" cy="7.342499999999999" fill-opacity="0.0" r="0.1325" stroke="red" stroke-width="0.001" /><circle cx="0.7236011" cy="7.475" fill-opacity="0.0" r="0.1325" stroke="red" stroke-width="0.001" /><circle cx="3.4444099" cy="7.475" fill-opacity="0.0" r="0.1325" stroke="red" stroke-width="0.001" /><circle cx="2.4241066" cy="7.6075" fill-opacity="0.0" r="0.1325" stroke="red" stroke-width="0.001" /><circle cx="0.7236011" cy="7.74" fill-opacity="0.0" r="0.1325" stroke="red" stroke-width="0.001" /><circle cx="3.4444099" cy="7.74" fill-opacity="0.0" r="0.1325" stroke="red" stroke-width="0.001" /><line stroke="red" stroke-width="0.001" x1="0" x2="0" y1="0" y2="9.004999999999999" /><line stroke="red" stroke-width="0.001" x1="0" x2="3.8279099000000003" y1="0" y2="0" /><line stroke="red" stroke-width="0.001" x1="3.8279099000000003" x2="0" y1="9.004999999999999" y2="9.004999999999999" /><line stroke="red" stroke-width="0.001" x1="3.8279099000000003" x2="3.8279099000000003" y1="9.004999999999999" y2="0" /></svg>