<?xml version="1.0" encoding="utf-8" ?>
<svg baseProfile="full" height="30.705000000000002in" version="1.1" viewBox="0,0,9.025406400000001,30.705000000000002" width="9.025406400000001in" xmlns="http://www.w3.org/2000/svg" xmlns:ev="http://www.w3.org/2001/xml-events" xmlns:xlink="http://www.w3.org/1999/xlink"><defs /><circle cx="1.1116922" cy="2.6325" fill-opacity="0.0" r="0.1325" stroke="red" stroke-width="0.1" /><circle cx="3.1522988" cy="2.6325" fill-opacity="0.0" r="0.1325" stroke="red" stroke-width="0.1" /><circle cx="7.913714200000001" cy="2.6325" fill-opacity="0.0" r="0.1325" stroke="red" stroke-width="0.1" /><circle cx="1.1116922" cy="4.7524999999999995" fill-opacity="0.0" r="0.1325" stroke="red" stroke-width="0.1" /><circle cx="6.553309800000001" cy="4.7524999999999995" fill-opacity="0.0" r="0.1325" stroke="red" stroke-width="0.1" /><circle cx="8.593916400000001" cy="5.0175" fill-opacity="0.0" r="0.1325" stroke="red" stroke-width="0.1" /><circle cx="7.233512000000001" cy="5.282500000000001" fill-opacity="0.0" r="0.1325" stroke="red" stroke-width="0.1" /><circle cx="5.873107600000001" cy="5.547499999999999" fill-opacity="0.0" r="0.1325" stroke="red" stroke-width="0.1" /><circle cx="4.512703200000001" cy="5.8125" fill-opacity="0.0" r="0.1325" stroke="red" stroke-width="0.1" /><circle cx="3.1522988" cy="6.077500000000001" fill-opacity="0.0" r="0.1325" stroke="red" stroke-width="0.1" /><circle cx="1.7918944" cy="6.342499999999999" fill-opacity="0.0" r="0.1325" stroke="red" stroke-width="0.1" /><circle cx="0.43149" cy="6.6075" fill-opacity="0.0" r="0.1325" stroke="red" stroke-width="0.1" /><circle cx="1.1116922" cy="6.8725000000000005" fill-opacity="0.0" r="0.1325" stroke="red" stroke-width="0.1" /><circle cx="2.4720966" cy="6.8725000000000005" fill-opacity="0.0" r="0.1325" stroke="red" stroke-width="0.1" /><circle cx="3.1522988" cy="6.8725000000000005" fill-opacity="0.0" r="0.1325" stroke="red" stroke-width="0.1" /><circle cx="3.1522988" cy="8.9925" fill-opacity="0.0" r="0.1325" stroke="red" stroke-width="0.1" /><circle cx="5.192905400000001" cy="8.9925" fill-opacity="0.0" r="0.1325" stroke="red" stroke-width="0.1" /><circle cx="7.233512000000001" cy="8.9925" fill-opacity="0.0" r="0.1325" stroke="red" stroke-width="0.1" /><circle cx="1.1116922" cy="10.0525" fill-opacity="0.0" r="0.1325" stroke="red" stroke-width="0.1" /><circle cx="3.1522988" cy="10.0525" fill-opacity="0.0" r="0.1325" stroke="red" stroke-width="0.1" /><circle cx="6.553309800000001" cy="10.0525" fill-opacity="0.0" r="0.1325" stroke="red" stroke-width="0.1" /><circle cx="0.43149" cy="11.1125" fill-opacity="0.0" r="0.1325" stroke="red" stroke-width="0.1" /><circle cx="1.1116922" cy="11.1125" fill-opacity="0.0" r="0.1325" stroke="red" stroke-width="0.1" /><circle cx="4.512703200000001" cy="11.1125" fill-opacity="0.0" r="0.1325" stroke="red" stroke-width="0.1" /><circle cx="7.913714200000001" cy="11.1125" fill-opacity="0.0" r="0.1325" stroke="red" stroke-width="0.1" /><circle cx="0.43149" cy="11.377500000000001" fill-opacity="0.0" r="0.1325" stroke="red" stroke-width="0.1" /><circle cx="1.1116922" cy="11.377500000000001" fill-opacity="0.0" r="0.1325" stroke="red" stroke-width="0.1" /><circle cx="4.512703200000001" cy="11.377500000000001" fill-opacity="0.0" r="0.1325" stroke="red" stroke-width="0.1" /><circle cx="7.913714200000001" cy="11.377500000000001" fill-opacity="0.0" r="0.1325" stroke="red" stroke-width="0.1" /><circle cx="7.913714200000001" cy="11.6425" fill-opacity="0.0" r="0.1325" stroke="red" stroke-width="0.1" /><circle cx="1.1116922" cy="11.9075" fill-opacity="0.0" r="0.1325" stroke="red" stroke-width="0.1" /><circle cx="8.593916400000001" cy="12.4375" fill-opacity="0.0" r="0.1325" stroke="red" stroke-width="0.1" /><circle cx="7.233512000000001" cy="13.232500000000002" fill-opacity="0.0" r="0.1325" stroke="red" stroke-width="0.1" /><circle cx="4.512703200000001" cy="13.762500000000001" fill-opacity="0.0" r="0.1325" stroke="red" stroke-width="0.1" /><circle cx="0.43149" cy="14.2925" fill-opacity="0.0" r="0.1325" stroke="red" stroke-width="0.1" /><circle cx="4.512703200000001" cy="14.822500000000002" fill-opacity="0.0" r="0.1325" stroke="red" stroke-width="0.1" /><circle cx="7.233512000000001" cy="15.0875" fill-opacity="0.0" r="0.1325" stroke="red" stroke-width="0.1" /><circle cx="3.1522988" cy="15.352500000000001" fill-opacity="0.0" r="0.1325" stroke="red" stroke-width="0.1" /><circle cx="5.192905400000001" cy="15.352500000000001" fill-opacity="0.0" r="0.1325" stroke="red" stroke-width="0.1" /><circle cx="7.233512000000001" cy="15.352500000000001" fill-opacity="0.0" r="0.1325" stroke="red" stroke-width="0.1" /><circle cx="3.1522988" cy="15.617500000000001" fill-opacity="0.0" r="0.1325" stroke="red" stroke-width="0.1" /><circle cx="5.192905400000001" cy="15.617500000000001" fill-opacity="0.0" r="0.1325" stroke="red" stroke-width="0.1" /><circle cx="7.233512000000001" cy="15.617500000000001" fill-opacity="0.0" r="0.1325" stroke="red" stroke-width="0.1" /><circle cx="7.913714200000001" cy="15.8825" fill-opacity="0.0" r="0.1325" stroke="red" stroke-width="0.1" /><circle cx="1.1116922" cy="16.1475" fill-opacity="0.0" r="0.1325" stroke="red" stroke-width="0.1" /><circle cx="8.593916400000001" cy="16.677500000000002" fill-opacity="0.0" r="0.1325" stroke="red" stroke-width="0.1" /><circle cx="7.233512000000001" cy="17.4725" fill-opacity="0.0" r="0.1325" stroke="red" stroke-width="0.1" /><circle cx="4.512703200000001" cy="18.0025" fill-opacity="0.0" r="0.1325" stroke="red" stroke-width="0.1" /><circle cx="0.43149" cy="18.5325" fill-opacity="0.0" r="0.1325" stroke="red" stroke-width="0.1" /><circle cx="4.512703200000001" cy="19.0625" fill-opacity="0.0" r="0.1325" stroke="red" stroke-width="0.1" /><circle cx="7.233512000000001" cy="19.3275" fill-opacity="0.0" r="0.1325" stroke="red" stroke-width="0.1" /><circle cx="0.43149" cy="19.5925" fill-opacity="0.0" r="0.1325" stroke="red" stroke-width="0.1" /><circle cx="2.4720966" cy="19.5925" fill-opacity="0.0" r="0.1325" stroke="red" stroke-width="0.1" /><circle cx="4.512703200000001" cy="19.5925" fill-opacity="0.0" r="0.1325" stroke="red" stroke-width="0.1" /><circle cx="7.913714200000001" cy="19.5925" fill-opacity="0.0" r="0.1325" stroke="red" stroke-width="0.1" /><circle cx="0.43149" cy="19.8575" fill-opacity="0.0" r="0.1325" stroke="red" stroke-width="0.1" /><circle cx="2.4720966" cy="19.8575" fill-opacity="0.0" r="0.1325" stroke="red" stroke-width="0.1" /><circle cx="4.512703200000001" cy="19.8575" fill-opacity="0.0" r="0.1325" stroke="red" stroke-width="0.1" /><circle cx="7.913714200000001" cy="19.8575" fill-opacity="0.0" r="0.1325" stroke="red" stroke-width="0.1" /><circle cx="7.913714200000001" cy="20.122500000000002" fill-opacity="0.0" r="0.1325" stroke="red" stroke-width="0.1" /><circle cx="1.1116922" cy="20.387500000000003" fill-opacity="0.0" r="0.1325" stroke="red" stroke-width="0.1" /><circle cx="8.593916400000001" cy="20.9175" fill-opacity="0.0" r="0.1325" stroke="red" stroke-width="0.1" /><circle cx="7.233512000000001" cy="21.712500000000002" fill-opacity="0.0" r="0.1325" stroke="red" stroke-width="0.1" /><circle cx="4.512703200000001" cy="22.2425" fill-opacity="0.0" r="0.1325" stroke="red" stroke-width="0.1" /><circle cx="0.43149" cy="22.7725" fill-opacity="0.0" r="0.1325" stroke="red" stroke-width="0.1" /><circle cx="4.512703200000001" cy="23.302500000000002" fill-opacity="0.0" r="0.1325" stroke="red" stroke-width="0.1" /><circle cx="7.233512000000001" cy="23.567500000000003" fill-opacity="0.0" r="0.1325" stroke="red" stroke-width="0.1" /><circle cx="1.1116922" cy="23.832500000000003" fill-opacity="0.0" r="0.1325" stroke="red" stroke-width="0.1" /><circle cx="3.1522988" cy="23.832500000000003" fill-opacity="0.0" r="0.1325" stroke="red" stroke-width="0.1" /><circle cx="5.192905400000001" cy="23.832500000000003" fill-opacity="0.0" r="0.1325" stroke="red" stroke-width="0.1" /><circle cx="1.1116922" cy="24.0975" fill-opacity="0.0" r="0.1325" stroke="red" stroke-width="0.1" /><circle cx="3.1522988" cy="24.0975" fill-opacity="0.0" r="0.1325" stroke="red" stroke-width="0.1" /><circle cx="5.192905400000001" cy="24.0975" fill-opacity="0.0" r="0.1325" stroke="red" stroke-width="0.1" /><circle cx="7.913714200000001" cy="24.3625" fill-opacity="0.0" r="0.1325" stroke="red" stroke-width="0.1" /><circle cx="1.1116922" cy="24.6275" fill-opacity="0.0" r="0.1325" stroke="red" stroke-width="0.1" /><circle cx="8.593916400000001" cy="25.157500000000002" fill-opacity="0.0" r="0.1325" stroke="red" stroke-width="0.1" /><circle cx="7.233512000000001" cy="25.9525" fill-opacity="0.0" r="0.1325" stroke="red" stroke-width="0.1" /><circle cx="4.512703200000001" cy="26.4825" fill-opacity="0.0" r="0.1325" stroke="red" stroke-width="0.1" /><circle cx="0.43149" cy="27.012500000000003" fill-opacity="0.0" r="0.1325" stroke="red" stroke-width="0.1" /><circle cx="4.512703200000001" cy="27.5425" fill-opacity="0.0" r="0.1325" stroke="red" stroke-width="0.1" /><circle cx="7.233512000000001" cy="27.8075" fill-opacity="0.0" r="0.1325" stroke="red" stroke-width="0.1" /><line stroke="red" stroke-width="0.1" x1="0" x2="0" y1="0" y2="30.705000000000002" /><line stroke="red" stroke-width="0.1" x1="0" x2="9.025406400000001" y1="0" y2="0" /><line stroke="red" stroke-width="0.1" x1="9.025406400000001" x2="0" y1="30.705000000000002" y2="30.705000000000002" /><line stroke="red" stroke-width="0.1" x1="9.025406400000001" x2="9.025406400000001" y1="30.705000000000002" y2="0" /></svg>