<?xml version="1.0" encoding="utf-8" ?>
<svg baseProfile="full" height="21.96in" version="1.1" viewBox="0,0,9.365526400000002,21.96" width="9.365526400000002in" xmlns="http://www.w3.org/2000/svg" xmlns:ev="http://www.w3.org/2001/xml-events" xmlns:xlink="http://www.w3.org/1999/xlink"><defs /><circle cx="0.60155" cy="2.6325" fill-opacity="0.0" r="0.1325" stroke="red" stroke-width="0.001" /><circle cx="3.6624599000000004" cy="2.765" fill-opacity="0.0" r="0.1325" stroke="red" stroke-width="0.001" /><circle cx="4.682763200000001" cy="2.8975" fill-opacity="0.0" r="0.1325" stroke="red" stroke-width="0.001" /><circle cx="7.743673100000001" cy="3.0300000000000002" fill-opacity="0.0" r="0.1325" stroke="red" stroke-width="0.001" /><circle cx="1.2817522000000001" cy="3.1625" fill-opacity="0.0" r="0.1325" stroke="red" stroke-width="0.001" /><circle cx="5.022864300000001" cy="3.295" fill-opacity="0.0" r="0.1325" stroke="red" stroke-width="0.001" /><circle cx="1.2817522000000001" cy="3.4275" fill-opacity="0.0" r="0.1325" stroke="red" stroke-width="0.001" /><circle cx="8.7639764" cy="3.6925" fill-opacity="0.0" r="0.1325" stroke="red" stroke-width="0.001" /><circle cx="3.6624599000000004" cy="3.825" fill-opacity="0.0" r="0.1325" stroke="red" stroke-width="0.001" /><circle cx="8.7639764" cy="3.9575000000000005" fill-opacity="0.0" r="0.1325" stroke="red" stroke-width="0.001" /><circle cx="7.403572000000001" cy="4.2225" fill-opacity="0.0" r="0.1325" stroke="red" stroke-width="0.001" /><circle cx="2.3020555000000003" cy="4.355" fill-opacity="0.0" r="0.1325" stroke="red" stroke-width="0.001" /><circle cx="7.403572000000001" cy="4.4875" fill-opacity="0.0" r="0.1325" stroke="red" stroke-width="0.001" /><circle cx="0.60155" cy="4.7524999999999995" fill-opacity="0.0" r="0.1325" stroke="red" stroke-width="0.001" /><circle cx="3.6624599000000004" cy="4.885" fill-opacity="0.0" r="0.1325" stroke="red" stroke-width="0.001" /><circle cx="4.682763200000001" cy="5.0175" fill-opacity="0.0" r="0.1325" stroke="red" stroke-width="0.001" /><circle cx="7.743673100000001" cy="5.15" fill-opacity="0.0" r="0.1325" stroke="red" stroke-width="0.001" /><circle cx="1.2817522000000001" cy="5.282500000000001" fill-opacity="0.0" r="0.1325" stroke="red" stroke-width="0.001" /><circle cx="5.022864300000001" cy="5.415" fill-opacity="0.0" r="0.1325" stroke="red" stroke-width="0.001" /><circle cx="1.2817522000000001" cy="5.547499999999999" fill-opacity="0.0" r="0.1325" stroke="red" stroke-width="0.001" /><circle cx="8.4238753" cy="5.68" fill-opacity="0.0" r="0.1325" stroke="red" stroke-width="0.001" /><circle cx="5.362965400000001" cy="5.8125" fill-opacity="0.0" r="0.1325" stroke="red" stroke-width="0.001" /><circle cx="1.6218533000000002" cy="5.945" fill-opacity="0.0" r="0.1325" stroke="red" stroke-width="0.001" /><circle cx="4.682763200000001" cy="6.077500000000001" fill-opacity="0.0" r="0.1325" stroke="red" stroke-width="0.001" /><circle cx="1.6218533000000002" cy="6.21" fill-opacity="0.0" r="0.1325" stroke="red" stroke-width="0.001" /><circle cx="5.362965400000001" cy="6.342499999999999" fill-opacity="0.0" r="0.1325" stroke="red" stroke-width="0.001" /><circle cx="0.60155" cy="6.8725000000000005" fill-opacity="0.0" r="0.1325" stroke="red" stroke-width="0.001" /><circle cx="3.6624599000000004" cy="7.005000000000001" fill-opacity="0.0" r="0.1325" stroke="red" stroke-width="0.001" /><circle cx="0.60155" cy="7.1375" fill-opacity="0.0" r="0.1325" stroke="red" stroke-width="0.001" /><circle cx="4.682763200000001" cy="7.1375" fill-opacity="0.0" r="0.1325" stroke="red" stroke-width="0.001" /><circle cx="7.743673100000001" cy="7.2700000000000005" fill-opacity="0.0" r="0.1325" stroke="red" stroke-width="0.001" /><circle cx="0.60155" cy="7.402500000000001" fill-opacity="0.0" r="0.1325" stroke="red" stroke-width="0.001" /><circle cx="1.2817522000000001" cy="7.402500000000001" fill-opacity="0.0" r="0.1325" stroke="red" stroke-width="0.001" /><circle cx="5.022864300000001" cy="7.535" fill-opacity="0.0" r="0.1325" stroke="red" stroke-width="0.001" /><circle cx="0.60155" cy="7.6675" fill-opacity="0.0" r="0.1325" stroke="red" stroke-width="0.001" /><circle cx="1.2817522000000001" cy="7.6675" fill-opacity="0.0" r="0.1325" stroke="red" stroke-width="0.001" /><circle cx="0.60155" cy="7.932500000000001" fill-opacity="0.0" r="0.1325" stroke="red" stroke-width="0.001" /><circle cx="8.7639764" cy="7.932500000000001" fill-opacity="0.0" r="0.1325" stroke="red" stroke-width="0.001" /><circle cx="3.6624599000000004" cy="8.065000000000001" fill-opacity="0.0" r="0.1325" stroke="red" stroke-width="0.001" /><circle cx="0.60155" cy="8.197500000000002" fill-opacity="0.0" r="0.1325" stroke="red" stroke-width="0.001" /><circle cx="8.7639764" cy="8.197500000000002" fill-opacity="0.0" r="0.1325" stroke="red" stroke-width="0.001" /><circle cx="3.3223588000000004" cy="8.4625" fill-opacity="0.0" r="0.1325" stroke="red" stroke-width="0.001" /><circle cx="7.403572000000001" cy="8.4625" fill-opacity="0.0" r="0.1325" stroke="red" stroke-width="0.001" /><circle cx="3.6624599000000004" cy="8.595" fill-opacity="0.0" r="0.1325" stroke="red" stroke-width="0.001" /><circle cx="3.3223588000000004" cy="8.727500000000001" fill-opacity="0.0" r="0.1325" stroke="red" stroke-width="0.001" /><circle cx="7.403572000000001" cy="8.727500000000001" fill-opacity="0.0" r="0.1325" stroke="red" stroke-width="0.001" /><circle cx="0.60155" cy="8.9925" fill-opacity="0.0" r="0.1325" stroke="red" stroke-width="0.001" /><circle cx="3.6624599000000004" cy="9.125" fill-opacity="0.0" r="0.1325" stroke="red" stroke-width="0.001" /><circle cx="0.60155" cy="9.2575" fill-opacity="0.0" r="0.1325" stroke="red" stroke-width="0.001" /><circle cx="4.682763200000001" cy="9.2575" fill-opacity="0.0" r="0.1325" stroke="red" stroke-width="0.001" /><circle cx="7.743673100000001" cy="9.39" fill-opacity="0.0" r="0.1325" stroke="red" stroke-width="0.001" /><circle cx="0.60155" cy="9.5225" fill-opacity="0.0" r="0.1325" stroke="red" stroke-width="0.001" /><circle cx="1.2817522000000001" cy="9.5225" fill-opacity="0.0" r="0.1325" stroke="red" stroke-width="0.001" /><circle cx="5.022864300000001" cy="9.655000000000001" fill-opacity="0.0" r="0.1325" stroke="red" stroke-width="0.001" /><circle cx="1.2817522000000001" cy="9.787500000000001" fill-opacity="0.0" r="0.1325" stroke="red" stroke-width="0.001" /><circle cx="4.682763200000001" cy="9.787500000000001" fill-opacity="0.0" r="0.1325" stroke="red" stroke-width="0.001" /><circle cx="5.022864300000001" cy="9.920000000000002" fill-opacity="0.0" r="0.1325" stroke="red" stroke-width="0.001" /><circle cx="8.4238753" cy="9.920000000000002" fill-opacity="0.0" r="0.1325" stroke="red" stroke-width="0.001" /><circle cx="1.2817522000000001" cy="10.0525" fill-opacity="0.0" r="0.1325" stroke="red" stroke-width="0.001" /><circle cx="5.362965400000001" cy="10.0525" fill-opacity="0.0" r="0.1325" stroke="red" stroke-width="0.001" /><circle cx="1.6218533000000002" cy="10.185" fill-opacity="0.0" r="0.1325" stroke="red" stroke-width="0.001" /><circle cx="5.022864300000001" cy="10.185" fill-opacity="0.0" r="0.1325" stroke="red" stroke-width="0.001" /><circle cx="4.682763200000001" cy="10.3175" fill-opacity="0.0" r="0.1325" stroke="red" stroke-width="0.001" /><circle cx="1.6218533000000002" cy="10.450000000000001" fill-opacity="0.0" r="0.1325" stroke="red" stroke-width="0.001" /><circle cx="3.6624599000000004" cy="10.450000000000001" fill-opacity="0.0" r="0.1325" stroke="red" stroke-width="0.001" /><circle cx="3.3223588000000004" cy="10.5825" fill-opacity="0.0" r="0.1325" stroke="red" stroke-width="0.001" /><circle cx="5.362965400000001" cy="10.5825" fill-opacity="0.0" r="0.1325" stroke="red" stroke-width="0.001" /><circle cx="4.682763200000001" cy="11.1125" fill-opacity="0.0" r="0.1325" stroke="red" stroke-width="0.001" /><circle cx="7.743673100000001" cy="11.245000000000001" fill-opacity="0.0" r="0.1325" stroke="red" stroke-width="0.001" /><circle cx="1.2817522000000001" cy="11.377500000000001" fill-opacity="0.0" r="0.1325" stroke="red" stroke-width="0.001" /><circle cx="4.682763200000001" cy="11.377500000000001" fill-opacity="0.0" r="0.1325" stroke="red" stroke-width="0.001" /><circle cx="2.9822577000000003" cy="11.510000000000002" fill-opacity="0.0" r="0.1325" stroke="red" stroke-width="0.001" /><circle cx="4.682763200000001" cy="11.6425" fill-opacity="0.0" r="0.1325" stroke="red" stroke-width="0.001" /><circle cx="5.362965400000001" cy="11.6425" fill-opacity="0.0" r="0.1325" stroke="red" stroke-width="0.001" /><circle cx="1.6218533000000002" cy="11.775" fill-opacity="0.0" r="0.1325" stroke="red" stroke-width="0.001" /><circle cx="4.682763200000001" cy="11.9075" fill-opacity="0.0" r="0.1325" stroke="red" stroke-width="0.001" /><circle cx="5.362965400000001" cy="11.9075" fill-opacity="0.0" r="0.1325" stroke="red" stroke-width="0.001" /><circle cx="4.682763200000001" cy="12.172500000000001" fill-opacity="0.0" r="0.1325" stroke="red" stroke-width="0.001" /><circle cx="6.723369800000001" cy="12.172500000000001" fill-opacity="0.0" r="0.1325" stroke="red" stroke-width="0.001" /><circle cx="1.6218533000000002" cy="12.305000000000001" fill-opacity="0.0" r="0.1325" stroke="red" stroke-width="0.001" /><circle cx="4.682763200000001" cy="12.4375" fill-opacity="0.0" r="0.1325" stroke="red" stroke-width="0.001" /><circle cx="6.723369800000001" cy="12.4375" fill-opacity="0.0" r="0.1325" stroke="red" stroke-width="0.001" /><circle cx="4.682763200000001" cy="12.7025" fill-opacity="0.0" r="0.1325" stroke="red" stroke-width="0.001" /><circle cx="5.362965400000001" cy="12.7025" fill-opacity="0.0" r="0.1325" stroke="red" stroke-width="0.001" /><circle cx="1.6218533000000002" cy="12.835" fill-opacity="0.0" r="0.1325" stroke="red" stroke-width="0.001" /><circle cx="4.682763200000001" cy="12.967500000000001" fill-opacity="0.0" r="0.1325" stroke="red" stroke-width="0.001" /><circle cx="5.362965400000001" cy="12.967500000000001" fill-opacity="0.0" r="0.1325" stroke="red" stroke-width="0.001" /><circle cx="4.682763200000001" cy="13.232500000000002" fill-opacity="0.0" r="0.1325" stroke="red" stroke-width="0.001" /><circle cx="7.743673100000001" cy="13.365" fill-opacity="0.0" r="0.1325" stroke="red" stroke-width="0.001" /><circle cx="1.2817522000000001" cy="13.4975" fill-opacity="0.0" r="0.1325" stroke="red" stroke-width="0.001" /><circle cx="4.682763200000001" cy="13.4975" fill-opacity="0.0" r="0.1325" stroke="red" stroke-width="0.001" /><circle cx="2.9822577000000003" cy="13.63" fill-opacity="0.0" r="0.1325" stroke="red" stroke-width="0.001" /><circle cx="4.682763200000001" cy="13.762500000000001" fill-opacity="0.0" r="0.1325" stroke="red" stroke-width="0.001" /><circle cx="5.362965400000001" cy="13.762500000000001" fill-opacity="0.0" r="0.1325" stroke="red" stroke-width="0.001" /><circle cx="1.6218533000000002" cy="13.895000000000001" fill-opacity="0.0" r="0.1325" stroke="red" stroke-width="0.001" /><circle cx="4.682763200000001" cy="14.027500000000002" fill-opacity="0.0" r="0.1325" stroke="red" stroke-width="0.001" /><circle cx="5.362965400000001" cy="14.027500000000002" fill-opacity="0.0" r="0.1325" stroke="red" stroke-width="0.001" /><circle cx="4.682763200000001" cy="14.2925" fill-opacity="0.0" r="0.1325" stroke="red" stroke-width="0.001" /><circle cx="6.723369800000001" cy="14.2925" fill-opacity="0.0" r="0.1325" stroke="red" stroke-width="0.001" /><circle cx="1.6218533000000002" cy="14.425" fill-opacity="0.0" r="0.1325" stroke="red" stroke-width="0.001" /><circle cx="4.682763200000001" cy="14.557500000000001" fill-opacity="0.0" r="0.1325" stroke="red" stroke-width="0.001" /><circle cx="6.723369800000001" cy="14.557500000000001" fill-opacity="0.0" r="0.1325" stroke="red" stroke-width="0.001" /><circle cx="4.682763200000001" cy="14.822500000000002" fill-opacity="0.0" r="0.1325" stroke="red" stroke-width="0.001" /><circle cx="5.362965400000001" cy="14.822500000000002" fill-opacity="0.0" r="0.1325" stroke="red" stroke-width="0.001" /><circle cx="0.60155" cy="15.352500000000001" fill-opacity="0.0" r="0.1325" stroke="red" stroke-width="0.001" /><circle cx="3.6624599000000004" cy="15.485000000000001" fill-opacity="0.0" r="0.1325" stroke="red" stroke-width="0.001" /><circle cx="0.60155" cy="15.617500000000001" fill-opacity="0.0" r="0.1325" stroke="red" stroke-width="0.001" /><circle cx="4.682763200000001" cy="15.617500000000001" fill-opacity="0.0" r="0.1325" stroke="red" stroke-width="0.001" /><circle cx="7.743673100000001" cy="15.750000000000002" fill-opacity="0.0" r="0.1325" stroke="red" stroke-width="0.001" /><circle cx="0.60155" cy="15.8825" fill-opacity="0.0" r="0.1325" stroke="red" stroke-width="0.001" /><circle cx="1.2817522000000001" cy="15.8825" fill-opacity="0.0" r="0.1325" stroke="red" stroke-width="0.001" /><circle cx="5.022864300000001" cy="16.015" fill-opacity="0.0" r="0.1325" stroke="red" stroke-width="0.001" /><circle cx="0.60155" cy="16.1475" fill-opacity="0.0" r="0.1325" stroke="red" stroke-width="0.001" /><circle cx="1.2817522000000001" cy="16.1475" fill-opacity="0.0" r="0.1325" stroke="red" stroke-width="0.001" /><circle cx="0.60155" cy="16.4125" fill-opacity="0.0" r="0.1325" stroke="red" stroke-width="0.001" /><circle cx="8.7639764" cy="16.4125" fill-opacity="0.0" r="0.1325" stroke="red" stroke-width="0.001" /><circle cx="3.6624599000000004" cy="16.545" fill-opacity="0.0" r="0.1325" stroke="red" stroke-width="0.001" /><circle cx="0.60155" cy="16.677500000000002" fill-opacity="0.0" r="0.1325" stroke="red" stroke-width="0.001" /><circle cx="8.7639764" cy="16.677500000000002" fill-opacity="0.0" r="0.1325" stroke="red" stroke-width="0.001" /><circle cx="3.3223588000000004" cy="16.942500000000003" fill-opacity="0.0" r="0.1325" stroke="red" stroke-width="0.001" /><circle cx="7.403572000000001" cy="16.942500000000003" fill-opacity="0.0" r="0.1325" stroke="red" stroke-width="0.001" /><circle cx="3.6624599000000004" cy="17.075000000000003" fill-opacity="0.0" r="0.1325" stroke="red" stroke-width="0.001" /><circle cx="3.3223588000000004" cy="17.207500000000003" fill-opacity="0.0" r="0.1325" stroke="red" stroke-width="0.001" /><circle cx="7.403572000000001" cy="17.207500000000003" fill-opacity="0.0" r="0.1325" stroke="red" stroke-width="0.001" /><circle cx="0.60155" cy="17.4725" fill-opacity="0.0" r="0.1325" stroke="red" stroke-width="0.001" /><circle cx="3.6624599000000004" cy="17.605" fill-opacity="0.0" r="0.1325" stroke="red" stroke-width="0.001" /><circle cx="0.60155" cy="17.7375" fill-opacity="0.0" r="0.1325" stroke="red" stroke-width="0.001" /><circle cx="4.682763200000001" cy="17.7375" fill-opacity="0.0" r="0.1325" stroke="red" stroke-width="0.001" /><circle cx="7.743673100000001" cy="17.87" fill-opacity="0.0" r="0.1325" stroke="red" stroke-width="0.001" /><circle cx="0.60155" cy="18.0025" fill-opacity="0.0" r="0.1325" stroke="red" stroke-width="0.001" /><circle cx="1.2817522000000001" cy="18.0025" fill-opacity="0.0" r="0.1325" stroke="red" stroke-width="0.001" /><circle cx="5.022864300000001" cy="18.135" fill-opacity="0.0" r="0.1325" stroke="red" stroke-width="0.001" /><circle cx="0.60155" cy="18.267500000000002" fill-opacity="0.0" r="0.1325" stroke="red" stroke-width="0.001" /><circle cx="1.2817522000000001" cy="18.267500000000002" fill-opacity="0.0" r="0.1325" stroke="red" stroke-width="0.001" /><circle cx="5.022864300000001" cy="18.4" fill-opacity="0.0" r="0.1325" stroke="red" stroke-width="0.001" /><circle cx="8.4238753" cy="18.4" fill-opacity="0.0" r="0.1325" stroke="red" stroke-width="0.001" /><circle cx="1.2817522000000001" cy="18.5325" fill-opacity="0.0" r="0.1325" stroke="red" stroke-width="0.001" /><circle cx="4.682763200000001" cy="18.5325" fill-opacity="0.0" r="0.1325" stroke="red" stroke-width="0.001" /><circle cx="5.022864300000001" cy="18.665000000000003" fill-opacity="0.0" r="0.1325" stroke="red" stroke-width="0.001" /><circle cx="1.2817522000000001" cy="18.7975" fill-opacity="0.0" r="0.1325" stroke="red" stroke-width="0.001" /><circle cx="3.3223588000000004" cy="18.7975" fill-opacity="0.0" r="0.1325" stroke="red" stroke-width="0.001" /><circle cx="1.6218533000000002" cy="18.93" fill-opacity="0.0" r="0.1325" stroke="red" stroke-width="0.001" /><circle cx="8.4238753" cy="18.93" fill-opacity="0.0" r="0.1325" stroke="red" stroke-width="0.001" /><circle cx="0.60155" cy="19.0625" fill-opacity="0.0" r="0.1325" stroke="red" stroke-width="0.001" /><circle cx="1.2817522000000001" cy="19.3275" fill-opacity="0.0" r="0.1325" stroke="red" stroke-width="0.001" /><circle cx="4.682763200000001" cy="19.3275" fill-opacity="0.0" r="0.1325" stroke="red" stroke-width="0.001" /><circle cx="8.0837742" cy="19.3275" fill-opacity="0.0" r="0.1325" stroke="red" stroke-width="0.001" /><line stroke="red" stroke-width="0.001" x1="0" x2="0" y1="0" y2="21.96" /><line stroke="red" stroke-width="0.001" x1="0" x2="9.365526400000002" y1="0" y2="0" /><line stroke="red" stroke-width="0.001" x1="9.365526400000002" x2="0" y1="21.96" y2="21.96" /><line stroke="red" stroke-width="0.001" x1="9.365526400000002" x2="9.365526400000002" y1="21.96" y2="0" /></svg>