<?xml version="1.0" encoding="utf-8" ?>
<svg baseProfile="full" height="21.96in" version="1.1" viewBox="0,0,9.365507500000001,21.96" width="9.365507500000001in" xmlns="http://www.w3.org/2000/svg" xmlns:ev="http://www.w3.org/2001/xml-events" xmlns:xlink="http://www.w3.org/1999/xlink"><defs /><circle cx="0.43149" cy="2.6325" fill-opacity="0.0" r="0.1325" stroke="red" stroke-width="0.001" /><circle cx="3.4923999" cy="2.765" fill-opacity="0.0" r="0.1325" stroke="red" stroke-width="0.001" /><circle cx="4.512703200000001" cy="2.8975" fill-opacity="0.0" r="0.1325" stroke="red" stroke-width="0.001" /><circle cx="7.573613100000001" cy="3.0300000000000002" fill-opacity="0.0" r="0.1325" stroke="red" stroke-width="0.001" /><circle cx="1.1116922" cy="3.1625" fill-opacity="0.0" r="0.1325" stroke="red" stroke-width="0.001" /><circle cx="4.852804300000001" cy="3.295" fill-opacity="0.0" r="0.1325" stroke="red" stroke-width="0.001" /><circle cx="1.1116922" cy="3.4275" fill-opacity="0.0" r="0.1325" stroke="red" stroke-width="0.001" /><circle cx="8.934017500000001" cy="3.56" fill-opacity="0.0" r="0.1325" stroke="red" stroke-width="0.001" /><circle cx="3.4923999" cy="3.825" fill-opacity="0.0" r="0.1325" stroke="red" stroke-width="0.001" /><circle cx="8.593916400000001" cy="3.9575000000000005" fill-opacity="0.0" r="0.1325" stroke="red" stroke-width="0.001" /><circle cx="7.573613100000001" cy="4.09" fill-opacity="0.0" r="0.1325" stroke="red" stroke-width="0.001" /><circle cx="2.1319955" cy="4.355" fill-opacity="0.0" r="0.1325" stroke="red" stroke-width="0.001" /><circle cx="7.233512000000001" cy="4.4875" fill-opacity="0.0" r="0.1325" stroke="red" stroke-width="0.001" /><circle cx="0.7715911" cy="4.62" fill-opacity="0.0" r="0.1325" stroke="red" stroke-width="0.001" /><circle cx="3.4923999" cy="4.885" fill-opacity="0.0" r="0.1325" stroke="red" stroke-width="0.001" /><circle cx="4.512703200000001" cy="5.0175" fill-opacity="0.0" r="0.1325" stroke="red" stroke-width="0.001" /><circle cx="7.573613100000001" cy="5.15" fill-opacity="0.0" r="0.1325" stroke="red" stroke-width="0.001" /><circle cx="1.1116922" cy="5.282500000000001" fill-opacity="0.0" r="0.1325" stroke="red" stroke-width="0.001" /><circle cx="4.852804300000001" cy="5.415" fill-opacity="0.0" r="0.1325" stroke="red" stroke-width="0.001" /><circle cx="1.1116922" cy="5.547499999999999" fill-opacity="0.0" r="0.1325" stroke="red" stroke-width="0.001" /><circle cx="8.253815300000001" cy="5.68" fill-opacity="0.0" r="0.1325" stroke="red" stroke-width="0.001" /><circle cx="5.192905400000001" cy="5.8125" fill-opacity="0.0" r="0.1325" stroke="red" stroke-width="0.001" /><circle cx="1.4517933" cy="5.945" fill-opacity="0.0" r="0.1325" stroke="red" stroke-width="0.001" /><circle cx="4.512703200000001" cy="6.077500000000001" fill-opacity="0.0" r="0.1325" stroke="red" stroke-width="0.001" /><circle cx="1.4517933" cy="6.21" fill-opacity="0.0" r="0.1325" stroke="red" stroke-width="0.001" /><circle cx="5.192905400000001" cy="6.342499999999999" fill-opacity="0.0" r="0.1325" stroke="red" stroke-width="0.001" /><circle cx="0.7715911" cy="6.475" fill-opacity="0.0" r="0.1325" stroke="red" stroke-width="0.001" /><circle cx="3.4923999" cy="7.005000000000001" fill-opacity="0.0" r="0.1325" stroke="red" stroke-width="0.001" /><circle cx="0.43149" cy="7.1375" fill-opacity="0.0" r="0.1325" stroke="red" stroke-width="0.001" /><circle cx="4.512703200000001" cy="7.1375" fill-opacity="0.0" r="0.1325" stroke="red" stroke-width="0.001" /><circle cx="7.573613100000001" cy="7.2700000000000005" fill-opacity="0.0" r="0.1325" stroke="red" stroke-width="0.001" /><circle cx="0.43149" cy="7.402500000000001" fill-opacity="0.0" r="0.1325" stroke="red" stroke-width="0.001" /><circle cx="1.1116922" cy="7.402500000000001" fill-opacity="0.0" r="0.1325" stroke="red" stroke-width="0.001" /><circle cx="4.852804300000001" cy="7.535" fill-opacity="0.0" r="0.1325" stroke="red" stroke-width="0.001" /><circle cx="0.43149" cy="7.6675" fill-opacity="0.0" r="0.1325" stroke="red" stroke-width="0.001" /><circle cx="1.1116922" cy="7.6675" fill-opacity="0.0" r="0.1325" stroke="red" stroke-width="0.001" /><circle cx="0.7715911" cy="7.800000000000001" fill-opacity="0.0" r="0.1325" stroke="red" stroke-width="0.001" /><circle cx="8.934017500000001" cy="7.800000000000001" fill-opacity="0.0" r="0.1325" stroke="red" stroke-width="0.001" /><circle cx="3.4923999" cy="8.065000000000001" fill-opacity="0.0" r="0.1325" stroke="red" stroke-width="0.001" /><circle cx="0.43149" cy="8.197500000000002" fill-opacity="0.0" r="0.1325" stroke="red" stroke-width="0.001" /><circle cx="8.593916400000001" cy="8.197500000000002" fill-opacity="0.0" r="0.1325" stroke="red" stroke-width="0.001" /><circle cx="3.4923999" cy="8.330000000000002" fill-opacity="0.0" r="0.1325" stroke="red" stroke-width="0.001" /><circle cx="7.573613100000001" cy="8.330000000000002" fill-opacity="0.0" r="0.1325" stroke="red" stroke-width="0.001" /><circle cx="3.4923999" cy="8.595" fill-opacity="0.0" r="0.1325" stroke="red" stroke-width="0.001" /><circle cx="3.1522988" cy="8.727500000000001" fill-opacity="0.0" r="0.1325" stroke="red" stroke-width="0.001" /><circle cx="7.233512000000001" cy="8.727500000000001" fill-opacity="0.0" r="0.1325" stroke="red" stroke-width="0.001" /><circle cx="0.7715911" cy="8.86" fill-opacity="0.0" r="0.1325" stroke="red" stroke-width="0.001" /><circle cx="3.4923999" cy="9.125" fill-opacity="0.0" r="0.1325" stroke="red" stroke-width="0.001" /><circle cx="0.43149" cy="9.2575" fill-opacity="0.0" r="0.1325" stroke="red" stroke-width="0.001" /><circle cx="4.512703200000001" cy="9.2575" fill-opacity="0.0" r="0.1325" stroke="red" stroke-width="0.001" /><circle cx="7.573613100000001" cy="9.39" fill-opacity="0.0" r="0.1325" stroke="red" stroke-width="0.001" /><circle cx="0.43149" cy="9.5225" fill-opacity="0.0" r="0.1325" stroke="red" stroke-width="0.001" /><circle cx="1.1116922" cy="9.5225" fill-opacity="0.0" r="0.1325" stroke="red" stroke-width="0.001" /><circle cx="4.852804300000001" cy="9.655000000000001" fill-opacity="0.0" r="0.1325" stroke="red" stroke-width="0.001" /><circle cx="1.1116922" cy="9.787500000000001" fill-opacity="0.0" r="0.1325" stroke="red" stroke-width="0.001" /><circle cx="4.512703200000001" cy="9.787500000000001" fill-opacity="0.0" r="0.1325" stroke="red" stroke-width="0.001" /><circle cx="4.852804300000001" cy="9.920000000000002" fill-opacity="0.0" r="0.1325" stroke="red" stroke-width="0.001" /><circle cx="8.253815300000001" cy="9.920000000000002" fill-opacity="0.0" r="0.1325" stroke="red" stroke-width="0.001" /><circle cx="1.1116922" cy="10.0525" fill-opacity="0.0" r="0.1325" stroke="red" stroke-width="0.001" /><circle cx="5.192905400000001" cy="10.0525" fill-opacity="0.0" r="0.1325" stroke="red" stroke-width="0.001" /><circle cx="1.4517933" cy="10.185" fill-opacity="0.0" r="0.1325" stroke="red" stroke-width="0.001" /><circle cx="4.852804300000001" cy="10.185" fill-opacity="0.0" r="0.1325" stroke="red" stroke-width="0.001" /><circle cx="4.512703200000001" cy="10.3175" fill-opacity="0.0" r="0.1325" stroke="red" stroke-width="0.001" /><circle cx="1.4517933" cy="10.450000000000001" fill-opacity="0.0" r="0.1325" stroke="red" stroke-width="0.001" /><circle cx="3.4923999" cy="10.450000000000001" fill-opacity="0.0" r="0.1325" stroke="red" stroke-width="0.001" /><circle cx="3.1522988" cy="10.5825" fill-opacity="0.0" r="0.1325" stroke="red" stroke-width="0.001" /><circle cx="5.192905400000001" cy="10.5825" fill-opacity="0.0" r="0.1325" stroke="red" stroke-width="0.001" /><circle cx="4.852804300000001" cy="10.715" fill-opacity="0.0" r="0.1325" stroke="red" stroke-width="0.001" /><circle cx="7.573613100000001" cy="11.245000000000001" fill-opacity="0.0" r="0.1325" stroke="red" stroke-width="0.001" /><circle cx="1.1116922" cy="11.377500000000001" fill-opacity="0.0" r="0.1325" stroke="red" stroke-width="0.001" /><circle cx="4.512703200000001" cy="11.377500000000001" fill-opacity="0.0" r="0.1325" stroke="red" stroke-width="0.001" /><circle cx="2.8121977" cy="11.510000000000002" fill-opacity="0.0" r="0.1325" stroke="red" stroke-width="0.001" /><circle cx="4.512703200000001" cy="11.6425" fill-opacity="0.0" r="0.1325" stroke="red" stroke-width="0.001" /><circle cx="5.192905400000001" cy="11.6425" fill-opacity="0.0" r="0.1325" stroke="red" stroke-width="0.001" /><circle cx="1.4517933" cy="11.775" fill-opacity="0.0" r="0.1325" stroke="red" stroke-width="0.001" /><circle cx="4.512703200000001" cy="11.9075" fill-opacity="0.0" r="0.1325" stroke="red" stroke-width="0.001" /><circle cx="5.192905400000001" cy="11.9075" fill-opacity="0.0" r="0.1325" stroke="red" stroke-width="0.001" /><circle cx="4.852804300000001" cy="12.040000000000001" fill-opacity="0.0" r="0.1325" stroke="red" stroke-width="0.001" /><circle cx="6.893410900000001" cy="12.040000000000001" fill-opacity="0.0" r="0.1325" stroke="red" stroke-width="0.001" /><circle cx="1.4517933" cy="12.305000000000001" fill-opacity="0.0" r="0.1325" stroke="red" stroke-width="0.001" /><circle cx="4.512703200000001" cy="12.4375" fill-opacity="0.0" r="0.1325" stroke="red" stroke-width="0.001" /><circle cx="6.553309800000001" cy="12.4375" fill-opacity="0.0" r="0.1325" stroke="red" stroke-width="0.001" /><circle cx="4.852804300000001" cy="12.57" fill-opacity="0.0" r="0.1325" stroke="red" stroke-width="0.001" /><circle cx="5.533006500000001" cy="12.57" fill-opacity="0.0" r="0.1325" stroke="red" stroke-width="0.001" /><circle cx="1.4517933" cy="12.835" fill-opacity="0.0" r="0.1325" stroke="red" stroke-width="0.001" /><circle cx="4.512703200000001" cy="12.967500000000001" fill-opacity="0.0" r="0.1325" stroke="red" stroke-width="0.001" /><circle cx="5.192905400000001" cy="12.967500000000001" fill-opacity="0.0" r="0.1325" stroke="red" stroke-width="0.001" /><circle cx="4.852804300000001" cy="13.100000000000001" fill-opacity="0.0" r="0.1325" stroke="red" stroke-width="0.001" /><circle cx="7.573613100000001" cy="13.365" fill-opacity="0.0" r="0.1325" stroke="red" stroke-width="0.001" /><circle cx="1.1116922" cy="13.4975" fill-opacity="0.0" r="0.1325" stroke="red" stroke-width="0.001" /><circle cx="4.512703200000001" cy="13.4975" fill-opacity="0.0" r="0.1325" stroke="red" stroke-width="0.001" /><circle cx="2.8121977" cy="13.63" fill-opacity="0.0" r="0.1325" stroke="red" stroke-width="0.001" /><circle cx="4.512703200000001" cy="13.762500000000001" fill-opacity="0.0" r="0.1325" stroke="red" stroke-width="0.001" /><circle cx="5.192905400000001" cy="13.762500000000001" fill-opacity="0.0" r="0.1325" stroke="red" stroke-width="0.001" /><circle cx="1.4517933" cy="13.895000000000001" fill-opacity="0.0" r="0.1325" stroke="red" stroke-width="0.001" /><circle cx="4.512703200000001" cy="14.027500000000002" fill-opacity="0.0" r="0.1325" stroke="red" stroke-width="0.001" /><circle cx="5.192905400000001" cy="14.027500000000002" fill-opacity="0.0" r="0.1325" stroke="red" stroke-width="0.001" /><circle cx="4.852804300000001" cy="14.16" fill-opacity="0.0" r="0.1325" stroke="red" stroke-width="0.001" /><circle cx="6.893410900000001" cy="14.16" fill-opacity="0.0" r="0.1325" stroke="red" stroke-width="0.001" /><circle cx="1.4517933" cy="14.425" fill-opacity="0.0" r="0.1325" stroke="red" stroke-width="0.001" /><circle cx="4.512703200000001" cy="14.557500000000001" fill-opacity="0.0" r="0.1325" stroke="red" stroke-width="0.001" /><circle cx="6.553309800000001" cy="14.557500000000001" fill-opacity="0.0" r="0.1325" stroke="red" stroke-width="0.001" /><circle cx="4.852804300000001" cy="14.690000000000001" fill-opacity="0.0" r="0.1325" stroke="red" stroke-width="0.001" /><circle cx="5.533006500000001" cy="14.690000000000001" fill-opacity="0.0" r="0.1325" stroke="red" stroke-width="0.001" /><circle cx="0.7715911" cy="14.955" fill-opacity="0.0" r="0.1325" stroke="red" stroke-width="0.001" /><circle cx="3.4923999" cy="15.485000000000001" fill-opacity="0.0" r="0.1325" stroke="red" stroke-width="0.001" /><circle cx="0.43149" cy="15.617500000000001" fill-opacity="0.0" r="0.1325" stroke="red" stroke-width="0.001" /><circle cx="4.512703200000001" cy="15.617500000000001" fill-opacity="0.0" r="0.1325" stroke="red" stroke-width="0.001" /><circle cx="7.573613100000001" cy="15.750000000000002" fill-opacity="0.0" r="0.1325" stroke="red" stroke-width="0.001" /><circle cx="0.43149" cy="15.8825" fill-opacity="0.0" r="0.1325" stroke="red" stroke-width="0.001" /><circle cx="1.1116922" cy="15.8825" fill-opacity="0.0" r="0.1325" stroke="red" stroke-width="0.001" /><circle cx="4.852804300000001" cy="16.015" fill-opacity="0.0" r="0.1325" stroke="red" stroke-width="0.001" /><circle cx="0.43149" cy="16.1475" fill-opacity="0.0" r="0.1325" stroke="red" stroke-width="0.001" /><circle cx="1.1116922" cy="16.1475" fill-opacity="0.0" r="0.1325" stroke="red" stroke-width="0.001" /><circle cx="0.7715911" cy="16.28" fill-opacity="0.0" r="0.1325" stroke="red" stroke-width="0.001" /><circle cx="8.934017500000001" cy="16.28" fill-opacity="0.0" r="0.1325" stroke="red" stroke-width="0.001" /><circle cx="3.4923999" cy="16.545" fill-opacity="0.0" r="0.1325" stroke="red" stroke-width="0.001" /><circle cx="0.43149" cy="16.677500000000002" fill-opacity="0.0" r="0.1325" stroke="red" stroke-width="0.001" /><circle cx="8.593916400000001" cy="16.677500000000002" fill-opacity="0.0" r="0.1325" stroke="red" stroke-width="0.001" /><circle cx="3.4923999" cy="16.810000000000002" fill-opacity="0.0" r="0.1325" stroke="red" stroke-width="0.001" /><circle cx="7.573613100000001" cy="16.810000000000002" fill-opacity="0.0" r="0.1325" stroke="red" stroke-width="0.001" /><circle cx="3.4923999" cy="17.075000000000003" fill-opacity="0.0" r="0.1325" stroke="red" stroke-width="0.001" /><circle cx="3.1522988" cy="17.207500000000003" fill-opacity="0.0" r="0.1325" stroke="red" stroke-width="0.001" /><circle cx="7.233512000000001" cy="17.207500000000003" fill-opacity="0.0" r="0.1325" stroke="red" stroke-width="0.001" /><circle cx="0.7715911" cy="17.340000000000003" fill-opacity="0.0" r="0.1325" stroke="red" stroke-width="0.001" /><circle cx="3.4923999" cy="17.605" fill-opacity="0.0" r="0.1325" stroke="red" stroke-width="0.001" /><circle cx="0.43149" cy="17.7375" fill-opacity="0.0" r="0.1325" stroke="red" stroke-width="0.001" /><circle cx="4.512703200000001" cy="17.7375" fill-opacity="0.0" r="0.1325" stroke="red" stroke-width="0.001" /><circle cx="7.573613100000001" cy="17.87" fill-opacity="0.0" r="0.1325" stroke="red" stroke-width="0.001" /><circle cx="0.43149" cy="18.0025" fill-opacity="0.0" r="0.1325" stroke="red" stroke-width="0.001" /><circle cx="1.1116922" cy="18.0025" fill-opacity="0.0" r="0.1325" stroke="red" stroke-width="0.001" /><circle cx="4.852804300000001" cy="18.135" fill-opacity="0.0" r="0.1325" stroke="red" stroke-width="0.001" /><circle cx="0.43149" cy="18.267500000000002" fill-opacity="0.0" r="0.1325" stroke="red" stroke-width="0.001" /><circle cx="1.1116922" cy="18.267500000000002" fill-opacity="0.0" r="0.1325" stroke="red" stroke-width="0.001" /><circle cx="4.852804300000001" cy="18.4" fill-opacity="0.0" r="0.1325" stroke="red" stroke-width="0.001" /><circle cx="8.253815300000001" cy="18.4" fill-opacity="0.0" r="0.1325" stroke="red" stroke-width="0.001" /><circle cx="1.1116922" cy="18.5325" fill-opacity="0.0" r="0.1325" stroke="red" stroke-width="0.001" /><circle cx="4.512703200000001" cy="18.5325" fill-opacity="0.0" r="0.1325" stroke="red" stroke-width="0.001" /><circle cx="4.852804300000001" cy="18.665000000000003" fill-opacity="0.0" r="0.1325" stroke="red" stroke-width="0.001" /><circle cx="1.1116922" cy="18.7975" fill-opacity="0.0" r="0.1325" stroke="red" stroke-width="0.001" /><circle cx="3.1522988" cy="18.7975" fill-opacity="0.0" r="0.1325" stroke="red" stroke-width="0.001" /><circle cx="1.4517933" cy="18.93" fill-opacity="0.0" r="0.1325" stroke="red" stroke-width="0.001" /><circle cx="8.253815300000001" cy="18.93" fill-opacity="0.0" r="0.1325" stroke="red" stroke-width="0.001" /><circle cx="0.43149" cy="19.0625" fill-opacity="0.0" r="0.1325" stroke="red" stroke-width="0.001" /><circle cx="1.4517933" cy="19.195" fill-opacity="0.0" r="0.1325" stroke="red" stroke-width="0.001" /><circle cx="4.852804300000001" cy="19.195" fill-opacity="0.0" r="0.1325" stroke="red" stroke-width="0.001" /><circle cx="8.253815300000001" cy="19.195" fill-opacity="0.0" r="0.1325" stroke="red" stroke-width="0.001" /><line stroke="red" stroke-width="0.001" x1="0" x2="0" y1="0" y2="21.96" /><line stroke="red" stroke-width="0.001" x1="0" x2="9.365507500000001" y1="0" y2="0" /><line stroke="red" stroke-width="0.001" x1="9.365507500000001" x2="0" y1="21.96" y2="21.96" /><line stroke="red" stroke-width="0.001" x1="9.365507500000001" x2="9.365507500000001" y1="21.96" y2="0" /></svg>