<?xml version="1.0" encoding="utf-8" ?>
<svg baseProfile="full" height="18.43in" version="1.1" viewBox="0,0,8.929426400000002,18.43" width="8.929426400000002in" xmlns="http://www.w3.org/2000/svg" xmlns:ev="http://www.w3.org/2001/xml-events" xmlns:xlink="http://www.w3.org/1999/xlink"><defs /><circle cx="0.3835" cy="1.1325" fill-opacity="0.0" r="0.1325" stroke="red" stroke-width="0.03" /><circle cx="1.7439044000000001" cy="1.3975" fill-opacity="0.0" r="0.1325" stroke="red" stroke-width="0.03" /><circle cx="2.4241066" cy="1.6625" fill-opacity="0.0" r="0.1325" stroke="red" stroke-width="0.03" /><circle cx="3.784511" cy="1.9275" fill-opacity="0.0" r="0.1325" stroke="red" stroke-width="0.03" /><circle cx="5.144915400000001" cy="2.1925" fill-opacity="0.0" r="0.1325" stroke="red" stroke-width="0.03" /><circle cx="2.4241066" cy="2.4575000000000005" fill-opacity="0.0" r="0.1325" stroke="red" stroke-width="0.03" /><circle cx="5.144915400000001" cy="2.7225" fill-opacity="0.0" r="0.1325" stroke="red" stroke-width="0.03" /><circle cx="4.464713200000001" cy="2.9875" fill-opacity="0.0" r="0.1325" stroke="red" stroke-width="0.03" /><circle cx="1.7439044000000001" cy="3.2525" fill-opacity="0.0" r="0.1325" stroke="red" stroke-width="0.03" /><circle cx="4.464713200000001" cy="3.5175" fill-opacity="0.0" r="0.1325" stroke="red" stroke-width="0.03" /><circle cx="3.784511" cy="3.7825" fill-opacity="0.0" r="0.1325" stroke="red" stroke-width="0.03" /><circle cx="1.0637022" cy="4.047499999999999" fill-opacity="0.0" r="0.1325" stroke="red" stroke-width="0.03" /><circle cx="3.784511" cy="4.3125" fill-opacity="0.0" r="0.1325" stroke="red" stroke-width="0.03" /><circle cx="0.3835" cy="4.577500000000001" fill-opacity="0.0" r="0.1325" stroke="red" stroke-width="0.03" /><circle cx="1.7439044000000001" cy="4.842499999999999" fill-opacity="0.0" r="0.1325" stroke="red" stroke-width="0.03" /><circle cx="2.4241066" cy="5.1075" fill-opacity="0.0" r="0.1325" stroke="red" stroke-width="0.03" /><circle cx="3.784511" cy="5.3725000000000005" fill-opacity="0.0" r="0.1325" stroke="red" stroke-width="0.03" /><circle cx="5.144915400000001" cy="5.6375" fill-opacity="0.0" r="0.1325" stroke="red" stroke-width="0.03" /><circle cx="2.4241066" cy="5.902500000000001" fill-opacity="0.0" r="0.1325" stroke="red" stroke-width="0.03" /><circle cx="5.144915400000001" cy="6.1675" fill-opacity="0.0" r="0.1325" stroke="red" stroke-width="0.03" /><circle cx="8.5459264" cy="6.432500000000001" fill-opacity="0.0" r="0.1325" stroke="red" stroke-width="0.03" /><circle cx="7.1855220000000015" cy="6.697500000000001" fill-opacity="0.0" r="0.1325" stroke="red" stroke-width="0.03" /><circle cx="5.144915400000001" cy="6.9625" fill-opacity="0.0" r="0.1325" stroke="red" stroke-width="0.03" /><circle cx="2.4241066" cy="7.227500000000001" fill-opacity="0.0" r="0.1325" stroke="red" stroke-width="0.03" /><circle cx="5.144915400000001" cy="7.492500000000001" fill-opacity="0.0" r="0.1325" stroke="red" stroke-width="0.03" /><circle cx="7.1855220000000015" cy="7.7575" fill-opacity="0.0" r="0.1325" stroke="red" stroke-width="0.03" /><circle cx="0.3835" cy="8.0225" fill-opacity="0.0" r="0.1325" stroke="red" stroke-width="0.03" /><circle cx="1.7439044000000001" cy="8.287500000000001" fill-opacity="0.0" r="0.1325" stroke="red" stroke-width="0.03" /><circle cx="0.3835" cy="8.5525" fill-opacity="0.0" r="0.1325" stroke="red" stroke-width="0.03" /><circle cx="2.4241066" cy="8.5525" fill-opacity="0.0" r="0.1325" stroke="red" stroke-width="0.03" /><circle cx="3.784511" cy="8.8175" fill-opacity="0.0" r="0.1325" stroke="red" stroke-width="0.03" /><circle cx="0.3835" cy="9.0825" fill-opacity="0.0" r="0.1325" stroke="red" stroke-width="0.03" /><circle cx="5.144915400000001" cy="9.0825" fill-opacity="0.0" r="0.1325" stroke="red" stroke-width="0.03" /><circle cx="2.4241066" cy="9.3475" fill-opacity="0.0" r="0.1325" stroke="red" stroke-width="0.03" /><circle cx="0.3835" cy="9.6125" fill-opacity="0.0" r="0.1325" stroke="red" stroke-width="0.03" /><circle cx="5.144915400000001" cy="9.6125" fill-opacity="0.0" r="0.1325" stroke="red" stroke-width="0.03" /><circle cx="0.3835" cy="9.877500000000001" fill-opacity="0.0" r="0.1325" stroke="red" stroke-width="0.03" /><circle cx="4.464713200000001" cy="9.877500000000001" fill-opacity="0.0" r="0.1325" stroke="red" stroke-width="0.03" /><circle cx="1.7439044000000001" cy="10.1425" fill-opacity="0.0" r="0.1325" stroke="red" stroke-width="0.03" /><circle cx="0.3835" cy="10.4075" fill-opacity="0.0" r="0.1325" stroke="red" stroke-width="0.03" /><circle cx="4.464713200000001" cy="10.4075" fill-opacity="0.0" r="0.1325" stroke="red" stroke-width="0.03" /><circle cx="1.7439044000000001" cy="10.672500000000001" fill-opacity="0.0" r="0.1325" stroke="red" stroke-width="0.03" /><circle cx="3.784511" cy="10.672500000000001" fill-opacity="0.0" r="0.1325" stroke="red" stroke-width="0.03" /><circle cx="1.7439044000000001" cy="10.9375" fill-opacity="0.0" r="0.1325" stroke="red" stroke-width="0.03" /><circle cx="1.7439044000000001" cy="11.2025" fill-opacity="0.0" r="0.1325" stroke="red" stroke-width="0.03" /><circle cx="3.784511" cy="11.2025" fill-opacity="0.0" r="0.1325" stroke="red" stroke-width="0.03" /><circle cx="0.3835" cy="11.467500000000001" fill-opacity="0.0" r="0.1325" stroke="red" stroke-width="0.03" /><circle cx="1.7439044000000001" cy="11.732500000000002" fill-opacity="0.0" r="0.1325" stroke="red" stroke-width="0.03" /><circle cx="0.3835" cy="11.9975" fill-opacity="0.0" r="0.1325" stroke="red" stroke-width="0.03" /><circle cx="2.4241066" cy="11.9975" fill-opacity="0.0" r="0.1325" stroke="red" stroke-width="0.03" /><circle cx="3.784511" cy="12.262500000000001" fill-opacity="0.0" r="0.1325" stroke="red" stroke-width="0.03" /><circle cx="0.3835" cy="12.527500000000002" fill-opacity="0.0" r="0.1325" stroke="red" stroke-width="0.03" /><circle cx="5.144915400000001" cy="12.527500000000002" fill-opacity="0.0" r="0.1325" stroke="red" stroke-width="0.03" /><circle cx="2.4241066" cy="12.7925" fill-opacity="0.0" r="0.1325" stroke="red" stroke-width="0.03" /><circle cx="2.4241066" cy="13.057500000000001" fill-opacity="0.0" r="0.1325" stroke="red" stroke-width="0.03" /><circle cx="5.144915400000001" cy="13.057500000000001" fill-opacity="0.0" r="0.1325" stroke="red" stroke-width="0.03" /><circle cx="2.4241066" cy="13.322500000000002" fill-opacity="0.0" r="0.1325" stroke="red" stroke-width="0.03" /><circle cx="8.5459264" cy="13.322500000000002" fill-opacity="0.0" r="0.1325" stroke="red" stroke-width="0.03" /><circle cx="5.144915400000001" cy="13.5875" fill-opacity="0.0" r="0.1325" stroke="red" stroke-width="0.03" /><circle cx="7.1855220000000015" cy="13.5875" fill-opacity="0.0" r="0.1325" stroke="red" stroke-width="0.03" /><circle cx="2.4241066" cy="13.852500000000001" fill-opacity="0.0" r="0.1325" stroke="red" stroke-width="0.03" /><circle cx="5.144915400000001" cy="13.852500000000001" fill-opacity="0.0" r="0.1325" stroke="red" stroke-width="0.03" /><circle cx="2.4241066" cy="14.117500000000001" fill-opacity="0.0" r="0.1325" stroke="red" stroke-width="0.03" /><circle cx="1.7439044000000001" cy="14.3825" fill-opacity="0.0" r="0.1325" stroke="red" stroke-width="0.03" /><circle cx="5.144915400000001" cy="14.3825" fill-opacity="0.0" r="0.1325" stroke="red" stroke-width="0.03" /><circle cx="1.7439044000000001" cy="14.6475" fill-opacity="0.0" r="0.1325" stroke="red" stroke-width="0.03" /><circle cx="7.1855220000000015" cy="14.6475" fill-opacity="0.0" r="0.1325" stroke="red" stroke-width="0.03" /><circle cx="2.4241066" cy="14.912500000000001" fill-opacity="0.0" r="0.1325" stroke="red" stroke-width="0.03" /><circle cx="3.784511" cy="15.1775" fill-opacity="0.0" r="0.1325" stroke="red" stroke-width="0.03" /><circle cx="2.4241066" cy="15.4425" fill-opacity="0.0" r="0.1325" stroke="red" stroke-width="0.03" /><circle cx="5.144915400000001" cy="15.4425" fill-opacity="0.0" r="0.1325" stroke="red" stroke-width="0.03" /><circle cx="5.825117600000001" cy="15.707500000000001" fill-opacity="0.0" r="0.1325" stroke="red" stroke-width="0.03" /><circle cx="2.4241066" cy="15.9725" fill-opacity="0.0" r="0.1325" stroke="red" stroke-width="0.03" /><circle cx="7.1855220000000015" cy="15.9725" fill-opacity="0.0" r="0.1325" stroke="red" stroke-width="0.03" /><circle cx="5.144915400000001" cy="16.2375" fill-opacity="0.0" r="0.1325" stroke="red" stroke-width="0.03" /><circle cx="2.4241066" cy="16.5025" fill-opacity="0.0" r="0.1325" stroke="red" stroke-width="0.03" /><circle cx="7.1855220000000015" cy="16.5025" fill-opacity="0.0" r="0.1325" stroke="red" stroke-width="0.03" /><circle cx="2.4241066" cy="16.767500000000002" fill-opacity="0.0" r="0.1325" stroke="red" stroke-width="0.03" /><circle cx="7.865724200000002" cy="16.767500000000002" fill-opacity="0.0" r="0.1325" stroke="red" stroke-width="0.03" /><circle cx="5.144915400000001" cy="17.0325" fill-opacity="0.0" r="0.1325" stroke="red" stroke-width="0.03" /><line stroke="red" stroke-width="0.03" x1="0" x2="0" y1="0" y2="18.43" /><line stroke="red" stroke-width="0.03" x1="0" x2="8.929426400000002" y1="0" y2="0" /><line stroke="red" stroke-width="0.03" x1="8.929426400000002" x2="0" y1="18.43" y2="18.43" /><line stroke="red" stroke-width="0.03" x1="8.929426400000002" x2="8.929426400000002" y1="18.43" y2="0" /></svg>