<?xml version="1.0" encoding="utf-8" ?>
<svg baseProfile="full" height="11.24in" version="1.1" viewBox="0,0,3.8279099000000003,11.24" width="3.8279099000000003in" xmlns="http://www.w3.org/2000/svg" xmlns:ev="http://www.w3.org/2001/xml-events" xmlns:xlink="http://www.w3.org/1999/xlink"><defs /><circle cx="1.7439044000000001" cy="5.1325" fill-opacity="0.0" r="0.1325" stroke="red" stroke-width="0.1" /><circle cx="2.0840055" cy="5.265" fill-opacity="0.0" r="0.1325" stroke="red" stroke-width="0.1" /><circle cx="2.4241066" cy="5.3975" fill-opacity="0.0" r="0.1325" stroke="red" stroke-width="0.1" /><circle cx="3.4444099" cy="5.53" fill-opacity="0.0" r="0.1325" stroke="red" stroke-width="0.1" /><circle cx="3.1043088" cy="5.6625" fill-opacity="0.0" r="0.1325" stroke="red" stroke-width="0.1" /><circle cx="2.7642077" cy="5.795" fill-opacity="0.0" r="0.1325" stroke="red" stroke-width="0.1" /><circle cx="1.7439044000000001" cy="5.9275" fill-opacity="0.0" r="0.1325" stroke="red" stroke-width="0.1" /><circle cx="1.4038033" cy="6.0600000000000005" fill-opacity="0.0" r="0.1325" stroke="red" stroke-width="0.1" /><circle cx="0.3835" cy="6.1925" fill-opacity="0.0" r="0.1325" stroke="red" stroke-width="0.1" /><circle cx="0.7236011" cy="6.325" fill-opacity="0.0" r="0.1325" stroke="red" stroke-width="0.1" /><circle cx="1.0637022" cy="6.4575000000000005" fill-opacity="0.0" r="0.1325" stroke="red" stroke-width="0.1" /><circle cx="2.0840055" cy="6.59" fill-opacity="0.0" r="0.1325" stroke="red" stroke-width="0.1" /><circle cx="1.7439044000000001" cy="6.7225" fill-opacity="0.0" r="0.1325" stroke="red" stroke-width="0.1" /><circle cx="1.4038033" cy="6.855" fill-opacity="0.0" r="0.1325" stroke="red" stroke-width="0.1" /><circle cx="1.0637022" cy="6.9875" fill-opacity="0.0" r="0.1325" stroke="red" stroke-width="0.1" /><circle cx="2.0840055" cy="7.12" fill-opacity="0.0" r="0.1325" stroke="red" stroke-width="0.1" /><circle cx="1.7439044000000001" cy="7.2524999999999995" fill-opacity="0.0" r="0.1325" stroke="red" stroke-width="0.1" /><circle cx="2.7642077" cy="7.385" fill-opacity="0.0" r="0.1325" stroke="red" stroke-width="0.1" /><circle cx="3.1043088" cy="7.5175" fill-opacity="0.0" r="0.1325" stroke="red" stroke-width="0.1" /><circle cx="3.4444099" cy="7.65" fill-opacity="0.0" r="0.1325" stroke="red" stroke-width="0.1" /><circle cx="2.4241066" cy="7.782500000000001" fill-opacity="0.0" r="0.1325" stroke="red" stroke-width="0.1" /><circle cx="2.0840055" cy="7.915" fill-opacity="0.0" r="0.1325" stroke="red" stroke-width="0.1" /><circle cx="1.0637022" cy="8.0475" fill-opacity="0.0" r="0.1325" stroke="red" stroke-width="0.1" /><circle cx="0.7236011" cy="8.18" fill-opacity="0.0" r="0.1325" stroke="red" stroke-width="0.1" /><circle cx="0.3835" cy="8.3125" fill-opacity="0.0" r="0.1325" stroke="red" stroke-width="0.1" /><circle cx="1.4038033" cy="8.445" fill-opacity="0.0" r="0.1325" stroke="red" stroke-width="0.1" /><circle cx="1.7439044000000001" cy="8.5775" fill-opacity="0.0" r="0.1325" stroke="red" stroke-width="0.1" /><circle cx="1.4038033" cy="8.71" fill-opacity="0.0" r="0.1325" stroke="red" stroke-width="0.1" /><circle cx="0.3835" cy="8.8425" fill-opacity="0.0" r="0.1325" stroke="red" stroke-width="0.1" /><circle cx="0.7236011" cy="8.975" fill-opacity="0.0" r="0.1325" stroke="red" stroke-width="0.1" /><line stroke="red" stroke-width="0.1" x1="0" x2="0" y1="0" y2="11.24" /><line stroke="red" stroke-width="0.1" x1="0" x2="3.8279099000000003" y1="0" y2="0" /><line stroke="red" stroke-width="0.1" x1="3.8279099000000003" x2="0" y1="11.24" y2="11.24" /><line stroke="red" stroke-width="0.1" x1="3.8279099000000003" x2="3.8279099000000003" y1="11.24" y2="0" /></svg>