<?xml version="1.0" encoding="utf-8" ?>
<svg baseProfile="full" height="810px" version="1.1" width="679px" xmlns="http://www.w3.org/2000/svg" xmlns:ev="http://www.w3.org/2001/xml-events" xmlns:xlink="http://www.w3.org/1999/xlink"><defs /><circle cx="156.186396" cy="11.25" fill-opacity="0.0" r="11.25" stroke="red" stroke-width="9.0" /><circle cx="309.231891" cy="23.175" fill-opacity="0.0" r="11.25" stroke="red" stroke-width="9.0" /><circle cx="339.84099000000003" cy="35.1" fill-opacity="0.0" r="11.25" stroke="red" stroke-width="9.0" /><circle cx="492.88648500000005" cy="47.025000000000006" fill-opacity="0.0" r="11.25" stroke="red" stroke-width="9.0" /><circle cx="339.84099000000003" cy="58.95" fill-opacity="0.0" r="11.25" stroke="red" stroke-width="9.0" /><circle cx="309.231891" cy="70.875" fill-opacity="0.0" r="11.25" stroke="red" stroke-width="9.0" /><circle cx="156.186396" cy="82.80000000000001" fill-opacity="0.0" r="11.25" stroke="red" stroke-width="9.0" /><circle cx="309.231891" cy="94.72500000000001" fill-opacity="0.0" r="11.25" stroke="red" stroke-width="9.0" /><circle cx="156.186396" cy="106.65" fill-opacity="0.0" r="11.25" stroke="red" stroke-width="9.0" /><circle cx="309.231891" cy="118.575" fill-opacity="0.0" r="11.25" stroke="red" stroke-width="9.0" /><circle cx="339.84099000000003" cy="130.5" fill-opacity="0.0" r="11.25" stroke="red" stroke-width="9.0" /><circle cx="492.88648500000005" cy="142.425" fill-opacity="0.0" r="11.25" stroke="red" stroke-width="9.0" /><circle cx="339.84099000000003" cy="154.35000000000002" fill-opacity="0.0" r="11.25" stroke="red" stroke-width="9.0" /><circle cx="309.231891" cy="166.275" fill-opacity="0.0" r="11.25" stroke="red" stroke-width="9.0" /><circle cx="156.186396" cy="178.20000000000002" fill-opacity="0.0" r="11.25" stroke="red" stroke-width="9.0" /><circle cx="64.359099" cy="190.125" fill-opacity="0.0" r="11.25" stroke="red" stroke-width="9.0" /><circle cx="156.186396" cy="202.05" fill-opacity="0.0" r="11.25" stroke="red" stroke-width="9.0" /><circle cx="584.713782" cy="202.05" fill-opacity="0.0" r="11.25" stroke="red" stroke-width="9.0" /><circle cx="309.231891" cy="213.97500000000002" fill-opacity="0.0" r="11.25" stroke="red" stroke-width="9.0" /><circle cx="615.322881" cy="213.97500000000002" fill-opacity="0.0" r="11.25" stroke="red" stroke-width="9.0" /><circle cx="339.84099000000003" cy="225.9" fill-opacity="0.0" r="11.25" stroke="red" stroke-width="9.0" /><circle cx="584.713782" cy="225.9" fill-opacity="0.0" r="11.25" stroke="red" stroke-width="9.0" /><circle cx="492.88648500000005" cy="237.82500000000002" fill-opacity="0.0" r="11.25" stroke="red" stroke-width="9.0" /><circle cx="339.84099000000003" cy="249.75" fill-opacity="0.0" r="11.25" stroke="red" stroke-width="9.0" /><circle cx="584.713782" cy="249.75" fill-opacity="0.0" r="11.25" stroke="red" stroke-width="9.0" /><circle cx="309.231891" cy="261.675" fill-opacity="0.0" r="11.25" stroke="red" stroke-width="9.0" /><circle cx="615.322881" cy="261.675" fill-opacity="0.0" r="11.25" stroke="red" stroke-width="9.0" /><circle cx="156.186396" cy="273.6" fill-opacity="0.0" r="11.25" stroke="red" stroke-width="9.0" /><circle cx="584.713782" cy="273.6" fill-opacity="0.0" r="11.25" stroke="red" stroke-width="9.0" /><circle cx="309.231891" cy="285.52500000000003" fill-opacity="0.0" r="11.25" stroke="red" stroke-width="9.0" /><circle cx="492.88648500000005" cy="285.52500000000003" fill-opacity="0.0" r="11.25" stroke="red" stroke-width="9.0" /><circle cx="156.186396" cy="297.45000000000005" fill-opacity="0.0" r="11.25" stroke="red" stroke-width="9.0" /><circle cx="584.713782" cy="297.45000000000005" fill-opacity="0.0" r="11.25" stroke="red" stroke-width="9.0" /><circle cx="309.231891" cy="309.375" fill-opacity="0.0" r="11.25" stroke="red" stroke-width="9.0" /><circle cx="615.322881" cy="309.375" fill-opacity="0.0" r="11.25" stroke="red" stroke-width="9.0" /><circle cx="339.84099000000003" cy="321.3" fill-opacity="0.0" r="11.25" stroke="red" stroke-width="9.0" /><circle cx="584.713782" cy="321.3" fill-opacity="0.0" r="11.25" stroke="red" stroke-width="9.0" /><circle cx="492.88648500000005" cy="333.225" fill-opacity="0.0" r="11.25" stroke="red" stroke-width="9.0" /><circle cx="339.84099000000003" cy="345.15000000000003" fill-opacity="0.0" r="11.25" stroke="red" stroke-width="9.0" /><circle cx="584.713782" cy="345.15000000000003" fill-opacity="0.0" r="11.25" stroke="red" stroke-width="9.0" /><circle cx="309.231891" cy="357.07500000000005" fill-opacity="0.0" r="11.25" stroke="red" stroke-width="9.0" /><circle cx="615.322881" cy="357.07500000000005" fill-opacity="0.0" r="11.25" stroke="red" stroke-width="9.0" /><circle cx="156.186396" cy="369.0" fill-opacity="0.0" r="11.25" stroke="red" stroke-width="9.0" /><circle cx="584.713782" cy="369.0" fill-opacity="0.0" r="11.25" stroke="red" stroke-width="9.0" /><circle cx="64.359099" cy="380.925" fill-opacity="0.0" r="11.25" stroke="red" stroke-width="9.0" /><circle cx="492.88648500000005" cy="380.925" fill-opacity="0.0" r="11.25" stroke="red" stroke-width="9.0" /><circle cx="156.186396" cy="392.85" fill-opacity="0.0" r="11.25" stroke="red" stroke-width="9.0" /><circle cx="584.713782" cy="392.85" fill-opacity="0.0" r="11.25" stroke="red" stroke-width="9.0" /><line stroke="red" stroke-width="9.0" x1="0" x2="0" y1="0" y2="810.9000000000001" /><line stroke="red" stroke-width="9.0" x1="0" x2="679.6819800000001" y1="0" y2="0" /><line stroke="red" stroke-width="9.0" x1="679.6819800000001" x2="0" y1="810.9000000000001" y2="810.9000000000001" /><line stroke="red" stroke-width="9.0" x1="679.6819800000001" x2="679.6819800000001" y1="810.9000000000001" y2="0" /></svg>