<?xml version="1.0" encoding="utf-8" ?>
<svg baseProfile="full" height="5.83in" version="1.1" viewBox="0,0,3.8279099000000003,5.83" width="3.8279099000000003in" xmlns="http://www.w3.org/2000/svg" xmlns:ev="http://www.w3.org/2001/xml-events" xmlns:xlink="http://www.w3.org/1999/xlink"><defs /><circle cx="0.3835" cy="0.1325" fill-opacity="0.0" r="0.1325" stroke="red" stroke-width="0.1" /><circle cx="1.4038033" cy="0.265" fill-opacity="0.0" r="0.1325" stroke="red" stroke-width="0.1" /><circle cx="1.7439044000000001" cy="0.3975" fill-opacity="0.0" r="0.1325" stroke="red" stroke-width="0.1" /><circle cx="2.7642077" cy="0.53" fill-opacity="0.0" r="0.1325" stroke="red" stroke-width="0.1" /><circle cx="1.7439044000000001" cy="0.6625000000000001" fill-opacity="0.0" r="0.1325" stroke="red" stroke-width="0.1" /><circle cx="1.4038033" cy="0.7950000000000002" fill-opacity="0.0" r="0.1325" stroke="red" stroke-width="0.1" /><circle cx="0.3835" cy="0.9275" fill-opacity="0.0" r="0.1325" stroke="red" stroke-width="0.1" /><circle cx="1.4038033" cy="1.06" fill-opacity="0.0" r="0.1325" stroke="red" stroke-width="0.1" /><circle cx="0.3835" cy="1.1925000000000001" fill-opacity="0.0" r="0.1325" stroke="red" stroke-width="0.1" /><circle cx="1.4038033" cy="1.3250000000000002" fill-opacity="0.0" r="0.1325" stroke="red" stroke-width="0.1" /><circle cx="1.7439044000000001" cy="1.4575000000000002" fill-opacity="0.0" r="0.1325" stroke="red" stroke-width="0.1" /><circle cx="2.7642077" cy="1.59" fill-opacity="0.0" r="0.1325" stroke="red" stroke-width="0.1" /><circle cx="1.7439044000000001" cy="1.7225000000000001" fill-opacity="0.0" r="0.1325" stroke="red" stroke-width="0.1" /><circle cx="1.4038033" cy="1.8550000000000002" fill-opacity="0.0" r="0.1325" stroke="red" stroke-width="0.1" /><circle cx="0.3835" cy="1.9875" fill-opacity="0.0" r="0.1325" stroke="red" stroke-width="0.1" /><circle cx="0.7236011" cy="2.12" fill-opacity="0.0" r="0.1325" stroke="red" stroke-width="0.1" /><circle cx="3.4444099" cy="2.12" fill-opacity="0.0" r="0.1325" stroke="red" stroke-width="0.1" /><circle cx="1.0637022" cy="2.2525" fill-opacity="0.0" r="0.1325" stroke="red" stroke-width="0.1" /><circle cx="3.1043088" cy="2.2525" fill-opacity="0.0" r="0.1325" stroke="red" stroke-width="0.1" /><circle cx="2.0840055" cy="2.385" fill-opacity="0.0" r="0.1325" stroke="red" stroke-width="0.1" /><circle cx="3.4444099" cy="2.385" fill-opacity="0.0" r="0.1325" stroke="red" stroke-width="0.1" /><circle cx="2.4241066" cy="2.5175" fill-opacity="0.0" r="0.1325" stroke="red" stroke-width="0.1" /><circle cx="2.0840055" cy="2.65" fill-opacity="0.0" r="0.1325" stroke="red" stroke-width="0.1" /><circle cx="3.4444099" cy="2.65" fill-opacity="0.0" r="0.1325" stroke="red" stroke-width="0.1" /><circle cx="1.0637022" cy="2.7825" fill-opacity="0.0" r="0.1325" stroke="red" stroke-width="0.1" /><circle cx="3.1043088" cy="2.7825" fill-opacity="0.0" r="0.1325" stroke="red" stroke-width="0.1" /><line stroke="red" stroke-width="0.1" x1="0" x2="0" y1="0" y2="5.83" /><line stroke="red" stroke-width="0.1" x1="0" x2="3.8279099000000003" y1="0" y2="0" /><line stroke="red" stroke-width="0.1" x1="3.8279099000000003" x2="0" y1="5.83" y2="5.83" /><line stroke="red" stroke-width="0.1" x1="3.8279099000000003" x2="3.8279099000000003" y1="5.83" y2="0" /></svg>